<svg version="1.1" id="Layer_1" xmlns="http://www.w3.org/2000/svg" xmlns:xlink="http://www.w3.org/1999/xlink" x="0px" y="0px"
	 width="100%" viewBox="0 0 976 976" enable-background="new 0 0 976 976" xml:space="preserve">
<path fill="#000000" opacity="1.000000" stroke="none" 
	d="
M407.327881,367.314880 
	C415.758148,359.640442 415.758179,359.640442 411.647888,349.475464 
	C407.510864,339.244202 407.510620,339.278809 396.126068,339.207703 
	C392.302643,339.183838 388.426910,339.286957 384.669159,338.714508 
	C376.887268,337.529053 371.990753,332.189270 371.934418,324.408813 
	C371.835541,310.754242 371.674591,297.080322 372.771698,283.451874 
	C373.367371,276.052002 380.184570,270.905853 388.443237,271.195190 
	C393.601257,271.375885 398.766022,271.405182 403.919006,271.671631 
	C407.024780,271.832214 408.936920,270.670685 409.981873,267.696320 
	C411.084534,264.557648 411.990356,261.198364 413.813507,258.496338 
	C417.409485,253.166855 415.675323,249.575943 411.277069,245.917953 
	C407.965271,243.163574 405.102997,239.854874 402.134308,236.704666 
	C396.310394,230.524597 395.896240,222.130615 401.811646,216.021957 
	C410.960632,206.574127 420.390839,197.380829 430.022827,188.424835 
	C436.328156,182.562042 445.021515,183.294357 451.086182,189.503250 
	C454.926514,193.434967 458.881866,197.261536 462.576538,201.325363 
	C464.428741,203.362640 466.020660,203.869461 468.627350,202.634369 
	C472.679352,200.714432 476.909332,199.138489 481.145966,197.650467 
	C484.229706,196.567368 485.737610,194.782944 485.648254,191.390427 
	C485.499176,185.729797 485.546997,180.059586 485.674896,174.397110 
	C485.858093,166.286194 490.877899,160.769730 499.057861,160.619431 
	C512.709534,160.368622 526.377075,160.446289 540.026489,160.812729 
	C547.688538,161.018433 553.065186,167.107300 553.271484,175.054871 
	C553.422729,180.882034 553.414795,186.722748 553.192261,192.546509 
	C553.068909,195.773499 554.419983,197.383972 557.324890,198.435623 
	C561.076172,199.793732 564.833984,201.258026 568.334778,203.147552 
	C571.568665,204.893036 573.780945,204.282440 576.194031,201.732162 
	C579.739197,197.985428 583.590515,194.528992 587.300537,190.937637 
	C594.083740,184.371429 602.355103,184.031403 609.077393,190.605042 
	C618.126221,199.453751 627.013184,208.483032 635.649414,217.733765 
	C642.036865,224.575699 641.591553,232.882019 634.967712,239.573456 
	C631.219543,243.359909 627.356079,247.039612 623.414185,250.624084 
	C621.145020,252.687531 620.465210,254.596725 621.997314,257.575592 
	C623.967957,261.407196 625.472412,265.498230 626.935242,269.564697 
	C627.983643,272.479187 629.688599,273.816650 632.866882,273.726349 
	C638.193787,273.575104 643.530090,273.663086 648.860718,273.752686 
	C658.104187,273.907959 664.249695,280.025269 664.182983,289.185089 
	C664.089661,302.002045 663.907898,314.819672 663.607849,327.633331 
	C663.424011,335.485626 657.764587,341.083374 649.893738,341.289093 
	C643.899353,341.445831 637.894897,341.441956 631.900757,341.284393 
	C628.721313,341.200806 627.025696,342.484985 626.025085,345.460815 
	C624.913757,348.765778 623.818115,352.215576 621.933350,355.089142 
	C618.882202,359.740906 620.321472,362.910492 623.991089,366.201080 
	C627.457336,369.309357 630.656555,372.728088 633.846802,376.128845 
	C639.831787,382.508606 639.929077,391.079193 633.858643,397.190216 
	C625.055176,406.052521 616.162292,414.832855 607.095215,423.424103 
	C599.909058,430.233185 592.126831,429.931976 585.053284,422.963287 
	C581.255859,419.222198 577.464050,415.470856 573.798523,411.602142 
	C571.652771,409.337372 569.572876,408.975159 566.698486,410.355438 
	C562.807556,412.223907 558.740356,413.768463 554.650757,415.164795 
	C552.030701,416.059357 550.944641,417.591675 550.899963,420.295013 
	C550.803711,426.121460 550.493286,431.944122 550.361206,437.770386 
	C550.160706,446.611053 544.763733,452.238129 536.034119,452.288300 
	C523.538147,452.360168 511.039764,452.359985 498.545197,452.188843 
	C488.689880,452.053894 482.884583,445.961151 482.825287,436.048645 
	C482.793365,430.717133 482.716034,425.382263 482.866699,420.054779 
	C482.948700,417.154419 481.941162,415.430939 479.146576,414.387573 
	C474.940399,412.817200 470.797028,411.041534 466.748199,409.100281 
	C464.210938,407.883759 462.407532,408.384247 460.529022,410.306122 
	C456.570984,414.355469 452.600525,418.407471 448.414368,422.215698 
	C441.688110,428.334808 433.355255,428.211609 426.961823,421.849609 
	C418.106110,413.037415 409.343414,404.128357 400.687225,395.120178 
	C394.607422,388.793121 395.090515,379.151398 401.457947,373.231628 
	C403.405792,371.420685 405.204254,369.449097 407.327881,367.314880 
M613.992859,352.558655 
	C615.625671,348.550995 617.431274,344.603333 618.848267,340.520782 
	C620.696106,335.196930 624.422974,332.876282 629.846436,332.895203 
	C635.511475,332.914948 641.176636,333.044373 646.841309,333.018005 
	C653.334900,332.987823 655.567749,330.820007 655.623474,324.295837 
	C655.720215,312.966034 655.717102,301.634918 655.682007,290.304626 
	C655.663147,284.228729 653.730408,282.359406 647.509949,282.275940 
	C641.845520,282.199890 636.178162,282.296844 630.515076,282.177185 
	C625.170471,282.064301 621.456848,279.801056 619.639221,274.380920 
	C617.897583,269.187500 615.654358,264.148682 613.408691,259.141876 
	C611.224731,254.272705 611.966553,250.120621 615.731812,246.408966 
	C619.884766,242.315094 624.070374,238.251694 628.128052,234.064713 
	C632.662537,229.385696 632.811890,227.381378 628.321533,222.657120 
	C620.177246,214.088425 611.767822,205.772293 603.548157,197.274261 
	C600.036926,193.644104 596.683838,193.765335 593.185669,197.164993 
	C588.766235,201.459991 584.300415,205.707794 579.917480,210.039612 
	C576.433350,213.483139 572.519104,214.223068 568.034180,212.311737 
	C562.524048,209.963486 557.027832,207.578018 551.468933,205.349930 
	C546.907104,203.521469 544.637573,200.313889 544.683472,195.383057 
	C544.742432,189.051819 544.791321,182.718506 544.694214,176.388382 
	C544.617615,171.396500 542.688965,169.378937 537.727722,169.272964 
	C525.568298,169.013245 513.406128,168.847839 501.244171,168.760880 
	C496.273865,168.725342 493.907379,171.254211 493.815002,176.110382 
	C493.691559,182.599808 493.390259,189.087616 493.372589,195.576691 
	C493.359833,200.250565 491.051636,203.134766 486.864319,204.564713 
	C481.344482,206.449707 475.943573,208.586533 470.664429,211.068420 
	C465.917511,213.300125 461.650208,212.589874 457.927704,208.721603 
	C453.769409,204.400558 449.566772,200.118256 445.270050,195.935547 
	C441.437653,192.204865 438.683441,191.970413 434.872894,195.597900 
	C425.945374,204.096542 417.193817,212.782104 408.464600,221.485840 
	C405.548676,224.393250 405.342529,227.613739 408.337341,230.738388 
	C412.830780,235.426651 417.313690,240.125107 421.824707,244.796432 
	C425.198547,248.290146 426.051544,252.137863 423.933167,256.659882 
	C421.816498,261.178253 419.748627,265.733215 417.954590,270.386017 
	C414.883179,278.351715 411.804749,280.426636 403.285797,279.928619 
	C398.968170,279.676178 394.642365,279.451447 390.319214,279.431122 
	C382.808136,279.395813 380.563324,281.608337 380.461945,289.313446 
	C380.317261,300.309235 380.297607,311.307404 380.323364,322.304321 
	C380.337585,328.374359 382.665283,330.603577 388.881744,330.688324 
	C394.546204,330.765503 400.212372,330.708069 405.877014,330.776245 
	C411.081573,330.838867 414.641693,333.107697 416.458313,338.232910 
	C418.345947,343.558350 420.477020,348.813293 422.802460,353.963226 
	C425.036682,358.911163 424.085236,362.955200 420.290588,366.619659 
	C415.856232,370.901917 411.506256,375.271454 407.093384,379.576172 
	C404.310791,382.290588 403.427551,385.486359 406.185669,388.403961 
	C415.109985,397.844360 424.213226,407.118896 433.385986,416.319305 
	C436.360260,419.302521 439.562500,418.937531 442.586975,415.951324 
	C446.972015,411.621765 451.466980,407.403564 455.915863,403.138763 
	C460.082062,399.144958 463.866302,398.408936 469.100464,400.941498 
	C474.203033,403.410370 479.327393,405.788208 484.707214,407.601715 
	C489.207703,409.118805 491.350220,412.343781 491.326538,417.072296 
	C491.294830,423.403931 491.228943,429.736359 491.297028,436.067200 
	C491.354187,441.382111 493.595245,443.642853 498.933014,443.696503 
	C510.595886,443.813812 522.259888,443.860413 533.923462,443.860382 
	C540.194824,443.860352 542.533813,441.477570 542.628784,435.067230 
	C542.710266,429.569672 542.801880,424.065918 542.632507,418.572815 
	C542.464294,413.118134 544.971802,409.621460 549.989563,408.024933 
	C555.248047,406.351837 560.234558,404.073975 565.256897,401.848816 
	C570.203918,399.656982 574.566406,400.275208 578.403442,404.378845 
	C582.384094,408.636047 586.485168,412.789398 590.687378,416.828156 
	C594.869080,420.847198 597.352661,420.971100 601.420898,417.094269 
	C610.220398,408.708618 618.884399,400.179657 627.539795,391.644409 
	C630.703369,388.524780 630.649414,385.204926 627.569458,381.988373 
	C623.998535,378.259094 620.469421,374.486694 616.807251,370.848602 
	C610.178589,364.263489 609.646851,361.516907 613.992859,352.558655 
z"/>
<path fill="#000000" opacity="1.000000" stroke="none" 
	d="
M466.171631,620.733643 
	C463.822998,644.477844 457.535400,666.583496 446.501556,687.264526 
	C438.779663,701.737915 429.518494,715.158081 417.965790,726.833313 
	C396.993225,748.028320 375.836456,769.041199 354.732788,790.106201 
	C350.395599,794.435364 348.575317,794.469482 344.327698,790.212585 
	C322.565002,768.402283 300.418152,746.955139 279.206390,724.620483 
	C253.061142,697.091309 237.960068,664.038269 233.636749,626.255188 
	C231.264740,605.525391 232.034317,584.698547 232.409348,563.893982 
	C232.541306,556.573608 232.664917,549.244873 232.455490,541.929565 
	C232.332153,537.621216 234.320740,535.756958 238.204956,534.565369 
	C264.769318,526.415710 291.288727,518.119507 317.816040,509.849365 
	C327.027466,506.977631 336.235779,504.093933 345.411407,501.110840 
	C348.051178,500.252625 350.504456,500.161774 353.197113,501.007996 
	C388.747345,512.180298 424.296814,523.356934 459.916901,534.303345 
	C465.041046,535.878052 467.166748,538.322144 467.065704,543.841797 
	C466.766968,560.161377 467.064484,576.490784 466.949066,592.815125 
	C466.884369,601.967590 466.463928,611.117554 466.171631,620.733643 
M445.165741,538.450317 
	C414.897949,529.032349 384.630157,519.614319 353.786377,510.017090 
	C353.786377,599.882263 353.786377,688.863953 353.786377,778.097839 
	C356.302490,777.089233 357.560394,775.277039 359.061737,773.774658 
	C374.247437,758.579407 389.138214,743.076782 404.652618,728.225403 
	C439.925964,694.459534 458.056580,653.357788 458.633057,604.559631 
	C458.821991,588.564514 458.661774,572.565186 458.662018,556.567810 
	C458.662262,542.863525 458.662750,542.863525 445.165741,538.450317 
M240.904037,552.555603 
	C240.916748,571.383301 240.730438,590.213684 240.982651,609.038147 
	C241.547287,651.180969 256.618317,687.645752 285.125031,718.462952 
	C296.879181,731.169739 309.488251,743.083801 321.652405,755.413757 
	C329.217316,763.081726 336.676819,770.853638 345.162354,779.586060 
	C345.162354,688.832947 345.162354,599.849548 345.162354,511.030151 
	C343.107391,510.199371 341.723267,511.089661 340.361176,511.512451 
	C310.001099,520.936768 279.625275,530.312927 249.334183,539.955078 
	C240.575485,542.743164 240.897064,540.587158 240.904037,552.555603 
z"/>
<path fill="#000000" opacity="1.000000" stroke="none" 
	d="
M718.433594,537.565857 
	C731.031616,550.278992 731.025879,550.278748 730.274109,567.844849 
	C730.146545,570.824158 729.796997,573.966125 726.054749,574.051025 
	C722.298828,574.136230 721.245056,571.056580 721.793701,568.076172 
	C723.945435,556.387573 718.717834,548.364807 710.276367,540.927124 
	C701.179810,532.912231 693.038757,523.812988 683.539673,514.238159 
	C683.539673,523.989014 683.142273,532.649536 683.720886,541.244385 
	C683.978882,545.077393 687.490967,546.747803 691.515747,546.755249 
	C694.857300,546.761414 699.490173,545.793274 699.403992,551.047546 
	C699.317993,556.288208 694.637634,555.165344 691.348694,555.148743 
	C681.424194,555.098694 675.153015,548.683411 674.934265,538.304199 
	C674.762268,530.143555 674.754822,521.973450 674.944702,513.813782 
	C675.036438,509.868286 673.927734,508.229980 669.606934,508.246857 
	C632.452026,508.392212 595.296265,508.309265 558.140808,508.346039 
	C551.605469,508.352509 549.058838,510.883301 549.056763,517.451660 
	C549.032654,594.761414 549.040955,672.071228 549.076538,749.380981 
	C549.079590,756.094727 550.976562,757.886536 557.833862,757.892700 
	C609.318054,757.939087 660.802185,757.969116 712.286377,757.973083 
	C719.439209,757.973633 721.682373,755.608032 721.692871,748.229919 
	C721.718323,730.401978 721.700806,712.574036 721.718079,694.746094 
	C721.719543,693.250732 721.668335,691.717163 721.969238,690.269470 
	C722.383667,688.276428 723.829651,687.098145 725.857300,686.970215 
	C728.004150,686.834778 729.349609,688.196594 729.844849,690.081604 
	C730.259216,691.658813 730.248474,693.374634 730.250854,695.029236 
	C730.276428,712.690552 730.035461,730.356140 730.355408,748.011658 
	C730.542969,758.364624 725.134644,766.602966 712.154114,766.502075 
	C660.672729,766.101929 609.186401,766.344299 557.701904,766.335327 
	C546.002808,766.333252 540.659058,760.953674 540.658997,749.200867 
	C540.658630,672.224243 540.663818,595.247620 540.674500,518.270996 
	C540.676270,505.657135 546.353577,499.880249 558.937073,499.865936 
	C597.425476,499.822052 635.914062,499.892395 674.402039,499.752411 
	C678.939453,499.735931 682.198792,501.179840 685.349731,504.421295 
	C696.147278,515.529053 707.217773,526.371399 718.433594,537.565857 
z"/>
<path fill="#000000" opacity="1.000000" stroke="none" 
	d="
M769.247192,659.245789 
	C761.110779,667.390198 753.236511,675.296387 745.354126,683.194702 
	C744.531372,684.019165 743.725525,684.881836 742.800049,685.578064 
	C740.893066,687.012817 738.714478,687.512207 736.891724,685.719604 
	C734.916138,683.776733 735.326904,681.458374 736.969360,679.431824 
	C738.119202,678.013123 739.431519,676.720459 740.723877,675.423889 
	C749.424255,666.695312 758.151001,657.993103 766.843506,649.256714 
	C771.796997,644.278137 771.816406,644.214661 766.643433,639.101807 
	C765.134338,637.610291 764.049622,635.611511 761.300781,634.503540 
	C756.051941,639.687439 750.613098,645.000977 745.237854,650.378052 
	C723.460876,672.162170 701.044312,693.304199 679.773804,715.596680 
	C677.773376,717.693176 675.416931,718.852051 672.454285,719.451660 
	C660.232727,721.925049 648.089600,724.782837 635.891418,727.375916 
	C629.867676,728.656372 627.713013,726.513794 629.018311,720.473572 
	C631.756348,707.803955 634.733337,695.185852 637.443298,682.510559 
	C637.966553,680.063293 639.133972,678.271851 640.817749,676.588745 
	C674.388489,643.031494 707.930725,609.445618 741.515137,575.902039 
	C747.410095,570.014160 753.580688,569.947388 759.482849,575.739807 
	C766.732178,582.854309 773.900940,590.055054 780.959290,597.358826 
	C786.502991,603.095276 786.625977,608.019409 781.339355,614.025391 
	C777.934143,617.894043 774.244324,621.528442 770.501709,625.077515 
	C768.253113,627.209839 768.332581,628.855347 770.627625,630.787231 
	C782.695007,640.945618 782.501343,647.305786 770.213623,658.299133 
	C769.965820,658.520813 769.742004,658.769348 769.247192,659.245789 
M694.888672,688.388123 
	C713.852844,669.457764 732.776733,650.486572 751.824829,631.641052 
	C754.676514,628.819580 755.049133,626.872314 751.906860,623.936401 
	C745.466919,617.919373 739.389526,611.515564 733.124207,605.310120 
	C728.454041,600.684448 728.509766,600.794373 723.876465,605.442932 
	C700.864380,628.530762 677.842712,651.609436 654.739624,674.606140 
	C647.678528,681.634644 647.514221,681.552063 654.537292,688.486755 
	C661.234497,695.099670 667.534973,702.143616 675.378540,708.456604 
	C681.879883,701.773193 688.140747,695.337158 694.888672,688.388123 
M754.086609,614.408020 
	C756.135498,617.024231 758.184387,619.640381 760.699097,622.851318 
	C766.470642,616.945984 770.987915,612.346375 775.476440,607.718933 
	C777.016724,606.131104 776.330750,604.743591 774.995544,603.414001 
	C767.802551,596.251160 760.634277,589.063599 753.433411,581.908752 
	C751.623535,580.110474 749.763367,579.863098 747.791138,581.819946 
	C744.605164,584.981140 741.448303,588.186829 738.071350,591.135864 
	C735.137573,593.697876 735.101685,595.715454 738.003418,598.428284 
	C743.349609,603.426514 748.407349,608.733215 754.086609,614.408020 
M654.396362,700.104370 
	C651.023315,697.336975 648.612732,693.453125 644.128113,690.926270 
	C642.085571,700.107666 640.160889,708.759033 638.050049,718.247253 
	C647.677917,716.141357 656.555115,714.800537 665.113342,712.069092 
	C665.494141,711.472412 665.874939,710.875732 666.255737,710.279053 
	C662.473999,707.049255 658.692261,703.819458 654.396362,700.104370 
z"/>
<path fill="#000000" opacity="1.000000" stroke="none" 
	d="
M310.786469,308.714966 
	C299.552368,320.509186 282.966614,321.520233 272.090363,311.334167 
	C261.376770,301.300415 260.692322,284.725586 270.526978,273.474304 
	C283.265320,258.901062 308.037048,263.155701 315.014130,281.317383 
	C316.418213,284.972229 318.240540,286.236176 321.924103,286.026703 
	C326.243011,285.781189 330.584442,285.933167 334.916107,285.909180 
	C338.635071,285.888580 340.397522,287.732758 340.382935,291.451874 
	C340.356781,298.115936 340.494629,304.781769 340.385315,311.443909 
	C340.332703,314.650208 341.548340,315.931152 344.809021,315.803009 
	C349.466370,315.619904 354.137604,315.734009 358.801758,315.801758 
	C361.532501,315.841461 364.011505,316.732635 364.076660,319.877319 
	C364.147736,323.307617 361.650848,324.259613 358.638702,324.255402 
	C351.807739,324.245819 344.976715,324.229065 338.145874,324.257507 
	C334.135315,324.274200 332.508148,322.331970 332.612762,318.346893 
	C332.774506,312.186584 332.424225,306.007507 332.729401,299.858093 
	C332.952820,295.356262 331.155823,293.756622 326.890930,294.309540 
	C325.907562,294.437012 324.878967,294.445129 323.896942,294.314392 
	C319.295624,293.701660 316.374420,295.041473 315.452728,300.142578 
	C314.898987,303.207397 313.125092,306.004730 310.786469,308.714966 
M286.342194,273.515259 
	C284.951569,274.069366 283.515625,274.531708 282.177917,275.192902 
	C275.046173,278.718048 271.496124,285.349274 272.207184,293.695374 
	C272.830231,301.008545 278.216797,307.210968 285.735748,309.272949 
	C292.703583,311.183807 300.449921,308.597992 304.836884,302.608490 
	C309.350433,296.446167 310.327515,289.711761 306.476166,282.932556 
	C302.270935,275.530365 295.645935,272.426117 286.342194,273.515259 
z"/>
<path fill="#000000" opacity="1.000000" stroke="none" 
	d="
M334.241028,386.058167 
	C330.909393,394.931335 325.828156,401.490906 316.625244,404.155121 
	C303.990112,407.812927 290.687714,400.986633 286.615173,388.596405 
	C282.228271,375.249786 288.648254,361.948273 301.773773,357.189423 
	C314.051300,352.737976 327.719055,358.864594 332.427948,371.255157 
	C333.801849,374.870270 335.379944,376.435974 339.556610,376.199493 
	C347.522095,375.748474 355.531616,376.055847 363.522675,376.092560 
	C365.180969,376.100189 366.845215,376.239563 368.494659,376.425476 
	C370.980469,376.705627 372.528625,377.978424 372.387054,380.661041 
	C372.242035,383.408325 370.433380,384.343414 367.986023,384.351349 
	C358.829559,384.380951 349.672668,384.331329 340.516785,384.413147 
	C338.438751,384.431702 336.121857,383.752045 334.241028,386.058167 
M303.260651,365.507568 
	C296.641388,368.790222 292.977051,374.230804 293.527710,381.503326 
	C294.018402,387.983398 297.526459,393.085175 303.870605,395.626862 
	C310.587921,398.318115 318.018097,396.199432 322.673401,390.406464 
	C327.101898,384.895721 327.356537,377.550964 323.332245,371.404388 
	C319.265137,365.192413 312.110870,362.903320 303.260651,365.507568 
z"/>
<path fill="#000000" opacity="1.000000" stroke="none" 
	d="
M334.682953,252.710205 
	C323.069336,246.956543 317.557312,236.289993 319.920349,224.655838 
	C322.138672,213.733780 331.640747,205.811264 343.453461,205.034668 
	C353.262634,204.389786 363.692291,211.073090 367.136414,220.915207 
	C368.509338,224.838608 370.478027,226.066620 374.371399,225.750595 
	C378.010651,225.455200 381.695892,225.680313 385.359619,225.746246 
	C388.043701,225.794556 390.006653,227.095230 390.055969,229.859802 
	C390.105713,232.646561 388.097076,234.032913 385.479462,234.137833 
	C381.487640,234.297852 377.471222,234.440079 373.493378,234.172104 
	C370.078461,233.942032 368.568329,235.316238 367.308502,238.429077 
	C361.816711,251.998154 348.969666,257.631470 334.682953,252.710205 
M331.739197,219.278732 
	C330.932922,220.536942 329.995972,221.731094 329.342621,223.064255 
	C326.224060,229.427734 327.983307,237.268814 333.524292,242.053238 
	C339.372314,247.102859 346.819397,247.553848 353.303284,243.251083 
	C359.274170,239.288773 361.951965,231.498657 359.620911,224.872147 
	C355.395264,212.859909 342.735504,210.027206 331.739197,219.278732 
z"/>
<path fill="#000000" opacity="1.000000" stroke="none" 
	d="
M600.849976,618.288940 
	C594.885864,618.283508 589.397400,618.410583 583.918335,618.238770 
	C577.271057,618.030334 573.828430,614.549316 573.702026,607.915344 
	C573.568970,600.937866 573.602661,593.954956 573.693176,586.976196 
	C573.769897,581.062988 577.232300,577.183899 583.145508,576.937378 
	C590.279419,576.639893 597.440552,576.652100 604.578125,576.886963 
	C610.758911,577.090454 614.362976,580.632141 614.723083,586.967163 
	C615.071350,593.096069 614.987549,599.262573 614.817261,605.404907 
	C614.540405,615.392456 611.483521,618.211548 600.849976,618.288940 
M581.945129,605.217529 
	C581.900940,607.834900 582.544617,609.821777 585.754211,609.788513 
	C591.393127,609.730164 597.032715,609.734070 602.672058,609.737793 
	C605.358826,609.739563 606.622009,608.387207 606.624084,605.753906 
	C606.628296,600.446045 606.590088,595.137634 606.653015,589.830444 
	C606.694092,586.363220 604.925293,585.187622 601.662109,585.277771 
	C597.187073,585.401367 592.705566,585.276672 588.227112,585.301270 
	C582.488892,585.332886 581.309692,586.613525 581.538025,592.372192 
	C581.695496,596.344482 581.809082,600.318604 581.945129,605.217529 
z"/>
<path fill="#000000" opacity="1.000000" stroke="none" 
	d="
M581.037537,678.252075 
	C575.581848,676.690491 573.573181,673.146667 573.640625,668.039368 
	C573.730713,661.220032 573.589050,654.397400 573.696472,647.578552 
	C573.799377,641.043579 577.095215,637.732849 583.551819,637.659546 
	C590.703918,637.578308 597.858765,637.592102 605.010620,637.694458 
	C610.715454,637.776062 613.737671,640.258850 614.436768,645.847839 
	C615.493286,654.294678 615.251831,662.809998 614.213074,671.222351 
	C613.633789,675.913635 610.096863,678.377258 605.381348,678.430420 
	C597.399658,678.520325 589.415283,678.361267 581.037537,678.252075 
M595.466187,670.063171 
	C606.650391,670.136902 606.650330,670.136902 606.645935,659.149353 
	C606.645813,658.817810 606.640442,658.486206 606.646606,658.154785 
	C606.924988,643.168640 605.864807,645.497742 593.972229,645.426086 
	C580.596436,645.345520 582.030945,644.291199 581.965332,657.432068 
	C581.902100,670.099365 581.926636,670.099487 595.466187,670.063171 
z"/>
<path fill="#000000" opacity="1.000000" stroke="none" 
	d="
M652.000122,593.649597 
	C663.481018,593.659180 674.461914,593.675903 685.442810,593.673767 
	C688.265198,593.673218 691.109741,593.869873 691.162109,597.574280 
	C691.216553,601.422729 688.217896,601.414429 685.477966,601.416748 
	C668.510071,601.431030 651.542175,601.428650 634.574280,601.422424 
	C631.816162,601.421387 628.850769,601.393311 628.859741,597.585205 
	C628.868469,593.875488 631.692261,593.646423 634.529663,593.655762 
	C640.186462,593.674438 645.843323,593.653992 652.000122,593.649597 
z"/>
<path fill="#000000" opacity="1.000000" stroke="none" 
	d="
M591.724182,717.090576 
	C596.747620,712.325012 601.469788,707.648254 606.223328,703.003601 
	C607.288452,701.962830 608.344910,700.826416 609.615540,700.103271 
	C611.483765,699.040039 613.519470,699.004456 615.029297,700.826599 
	C616.360229,702.432739 616.400818,704.381775 614.959717,705.845642 
	C607.966431,712.949646 600.936523,720.021240 593.761169,726.940125 
	C591.644287,728.981445 589.351746,727.746765 587.564026,726.023315 
	C583.853943,722.446533 580.202026,718.806763 576.607788,715.113525 
	C574.807678,713.263855 574.010254,710.952576 576.043457,708.915894 
	C578.140564,706.815186 580.563049,707.298279 582.704407,709.192200 
	C585.661133,711.807190 587.720337,715.401672 591.724182,717.090576 
z"/>
<path fill="#000000" opacity="1.000000" stroke="none" 
	d="
M728.715210,232.266159 
	C736.091858,239.287018 742.762268,246.491791 749.281494,253.839294 
	C750.163513,254.833313 751.052551,255.849884 751.749207,256.973297 
	C752.963013,258.930664 753.621582,261.078949 751.556396,262.843384 
	C749.421997,264.667114 747.194458,264.264038 745.349854,262.279236 
	C741.609619,258.254730 738.048035,254.060135 734.225830,250.116943 
	C728.896423,244.618744 723.403259,239.279083 717.964600,233.887299 
	C715.844666,231.785675 714.636353,229.425217 717.080994,226.957748 
	C719.328613,224.689194 721.654785,225.795059 723.689819,227.619690 
	C725.300171,229.063614 726.868958,230.553879 728.715210,232.266159 
z"/>
<path fill="#000000" opacity="1.000000" stroke="none" 
	d="
M670.104614,186.849426 
	C676.251648,190.850464 682.086060,194.664963 687.927307,198.469055 
	C690.710022,200.281296 692.731079,202.811508 690.647705,205.890778 
	C688.410706,209.197052 685.437866,207.563248 682.856812,205.687103 
	C673.174866,198.649323 662.923523,192.514008 652.532043,186.603821 
	C649.817322,185.059830 646.852234,183.254913 648.752319,179.711029 
	C650.788757,175.912842 654.072083,177.400803 656.935425,179.057892 
	C661.244812,181.551865 665.510498,184.121277 670.104614,186.849426 
z"/>
<path fill="#000000" opacity="1.000000" stroke="none" 
	d="
M780.213257,311.723175 
	C777.080322,306.579254 774.179077,301.721863 771.163452,296.936493 
	C769.585083,294.431854 768.719543,291.923096 771.576965,289.946167 
	C774.527222,287.904999 776.605774,289.821411 778.177612,292.205078 
	C785.236084,302.909515 791.737793,313.941010 797.320007,325.494049 
	C798.621277,328.187134 799.458496,331.251892 796.075623,332.840179 
	C792.773376,334.390686 790.946289,331.977814 789.523315,329.228394 
	C786.541809,323.467499 783.446228,317.765686 780.213257,311.723175 
z"/>
<path fill="#000000" opacity="1.000000" stroke="none" 
	d="
M827.515503,528.482056 
	C829.798401,530.633240 829.413940,532.999207 829.041687,535.289124 
	C827.098450,547.245117 824.309387,559.018127 821.239502,570.727234 
	C820.945679,571.848145 820.615906,572.980896 820.124695,574.024292 
	C819.160095,576.073364 817.540222,576.999817 815.252075,576.410034 
	C812.854919,575.792236 812.044800,574.020691 812.514954,571.841553 
	C813.667786,566.497864 815.135864,561.221680 816.263184,555.873230 
	C817.868958,548.254700 819.317505,540.602234 820.764587,532.951294 
	C821.450928,529.322205 822.973755,527.012146 827.515503,528.482056 
z"/>
<path fill="#000000" opacity="1.000000" stroke="none" 
	d="
M586.127075,808.325134 
	C581.564453,809.516479 577.403076,810.640076 573.225281,811.699524 
	C570.627930,812.358215 568.450134,811.694885 567.793518,808.905334 
	C567.191528,806.347839 568.146057,804.398254 570.977051,803.626160 
	C583.620361,800.178162 596.179626,796.462952 608.514404,792.002625 
	C610.817139,791.169983 613.372742,791.426941 614.284180,794.270630 
	C615.194824,797.112061 613.820190,799.177979 611.084045,800.104004 
	C602.915466,802.868835 594.711548,805.529175 586.127075,808.325134 
z"/>
<path fill="#000000" opacity="1.000000" stroke="none" 
	d="
M438.546448,817.582642 
	C428.346680,816.413208 418.815582,814.086548 409.256378,811.931580 
	C406.559143,811.323486 404.679749,809.700073 405.382660,806.571350 
	C406.045990,803.618774 408.350769,803.103821 410.840393,803.653198 
	C423.831757,806.519958 436.884491,809.019653 450.068420,810.841248 
	C452.634705,811.195801 453.653656,813.140442 453.379211,815.614685 
	C453.085358,818.263794 451.259064,819.395142 448.826416,819.162292 
	C445.526184,818.846375 442.258453,818.190857 438.546448,817.582642 
z"/>
<path fill="#000000" opacity="1.000000" stroke="none" 
	d="
M523.655518,811.642212 
	C526.413635,811.360779 528.727051,810.848328 531.023071,810.916809 
	C533.435364,810.988831 535.088135,812.456787 535.164734,815.032043 
	C535.242188,817.633789 533.698608,818.934814 531.220459,819.293762 
	C518.031494,821.203979 504.721008,821.238770 491.448364,821.817871 
	C488.721954,821.936768 486.310455,820.827087 486.270264,817.663086 
	C486.229431,814.447815 488.518188,813.739136 491.362885,813.590210 
	C501.980774,813.034363 512.590393,812.320923 523.655518,811.642212 
z"/>
<path fill="#000000" opacity="1.000000" stroke="none" 
	d="
M826.873718,493.820435 
	C824.811951,491.911652 824.873535,489.780640 824.876038,487.569122 
	C824.889709,475.430908 825.362122,463.280243 823.886597,451.177399 
	C823.509705,448.085663 824.265381,445.132233 827.922546,444.973969 
	C831.250793,444.829956 832.020264,447.479004 832.374390,450.436981 
	C833.904358,463.218079 833.177002,476.041748 833.320496,488.848236 
	C833.366882,492.991425 831.776855,495.295990 826.873718,493.820435 
z"/>
<path fill="#000000" opacity="1.000000" stroke="none" 
	d="
M822.832886,393.427704 
	C823.868164,397.868530 824.727417,401.929565 825.666931,405.971985 
	C826.282837,408.622131 825.572632,410.870331 822.967590,411.600708 
	C820.033325,412.423370 818.286926,410.613525 817.618835,407.794159 
	C814.591492,395.017883 811.225037,382.341919 806.961243,369.908661 
	C806.179626,367.629547 806.408020,365.034332 809.176697,364.026306 
	C812.131409,362.950592 814.028870,364.590454 814.874634,367.302399 
	C817.544006,375.861694 820.094482,384.458038 822.832886,393.427704 
z"/>
<path fill="#000000" opacity="1.000000" stroke="none" 
	d="
M230.434082,256.435699 
	C231.863312,254.789429 233.041122,253.395416 234.290970,252.069321 
	C236.207047,250.036407 238.506683,249.059143 240.850159,251.085236 
	C243.235764,253.147781 242.434219,255.627045 240.741577,257.735779 
	C235.862457,263.814301 230.849319,269.785309 225.972046,275.865265 
	C223.274490,279.228027 220.775482,282.749298 218.125870,286.151520 
	C216.503693,288.234436 214.537460,290.011810 211.842819,288.039246 
	C209.163696,286.078033 209.510330,283.642181 211.313522,281.091919 
	C217.256012,272.687378 223.523972,264.540100 230.434082,256.435699 
z"/>
<path fill="#000000" opacity="1.000000" stroke="none" 
	d="
M187.529205,638.378540 
	C184.795090,632.818542 182.133163,627.633728 179.685120,622.349854 
	C178.394318,619.563660 177.295715,616.135559 180.823090,614.460083 
	C184.407425,612.757507 186.124435,615.741455 187.465698,618.638000 
	C192.012909,628.458191 197.005722,638.049255 202.415436,647.422791 
	C202.831284,648.143372 203.222107,648.879272 203.603073,649.619080 
	C204.795166,651.934021 204.988968,654.305847 202.608948,655.821289 
	C200.036011,657.459717 197.771286,656.436951 196.306152,653.910400 
	C193.384995,648.872986 190.556839,643.781677 187.529205,638.378540 
z"/>
<path fill="#000000" opacity="1.000000" stroke="none" 
	d="
M194.057922,325.978149 
	C189.670166,334.405426 185.792435,342.664246 182.291199,351.099426 
	C181.909515,352.018982 181.603119,352.979156 181.132446,353.850616 
	C179.949478,356.040955 178.327698,357.895386 175.608154,356.756317 
	C172.850189,355.601166 172.355759,353.306702 173.403137,350.531616 
	C177.809875,338.855865 183.332764,327.702637 189.185059,316.705566 
	C190.501526,314.231781 192.677231,312.822571 195.368347,314.247467 
	C198.114014,315.701202 197.812149,318.316406 196.722641,320.780182 
	C195.986176,322.445526 195.056152,324.025238 194.057922,325.978149 
z"/>
<path fill="#000000" opacity="1.000000" stroke="none" 
	d="
M161.239716,572.550232 
	C159.102951,563.774536 157.079071,555.387451 155.123001,546.984497 
	C154.438202,544.042725 154.394669,540.912781 157.995102,540.109680 
	C161.613876,539.302551 162.759079,542.039490 163.378738,545.118713 
	C165.541107,555.863770 168.312241,566.458740 171.409058,576.971985 
	C171.871704,578.542603 172.176865,580.202759 172.248077,581.834900 
	C172.338638,583.910339 171.156448,585.394836 169.145355,585.773499 
	C167.174744,586.144592 165.428238,585.328430 164.725189,583.361267 
	C163.497223,579.925354 162.483047,576.412903 161.239716,572.550232 
z"/>
<path fill="#000000" opacity="1.000000" stroke="none" 
	d="
M285.172729,205.132935 
	C287.593964,203.339905 289.694397,201.712418 291.880310,200.209244 
	C294.172455,198.633041 296.639587,198.162949 298.470795,200.713943 
	C300.315033,203.283035 298.950592,205.495529 296.834412,207.166046 
	C289.936279,212.611557 282.949219,217.944351 276.047760,223.385696 
	C273.705566,225.232346 271.587524,227.364410 269.235321,229.196976 
	C267.145935,230.824799 264.729309,231.879959 262.674805,229.265900 
	C260.798431,226.878510 261.600739,224.546936 263.717834,222.681351 
	C270.563751,216.648758 277.481018,210.699814 285.172729,205.132935 
z"/>
<path fill="#000000" opacity="1.000000" stroke="none" 
	d="
M148.667786,470.167542 
	C148.782303,467.886169 148.386383,465.979248 149.488556,464.356506 
	C150.696762,462.577545 152.537018,462.359619 154.381454,462.916199 
	C156.931931,463.685852 157.209274,465.823242 157.208557,468.126648 
	C157.205841,476.934875 157.228775,485.743469 157.321777,494.551086 
	C157.355026,497.702148 157.564621,500.854218 157.784592,503.999512 
	C157.985916,506.878021 157.164780,508.994110 153.956070,509.270050 
	C150.947601,509.528748 150.000275,507.646393 149.610123,505.002380 
	C147.924805,493.582062 148.971146,482.096191 148.667786,470.167542 
z"/>
<path fill="#000000" opacity="1.000000" stroke="none" 
	d="
M162.407211,417.368225 
	C161.881454,421.077698 161.462494,424.372131 160.875748,427.636383 
	C160.417099,430.187958 158.982056,432.062164 156.172012,431.792664 
	C153.243362,431.511810 152.442535,429.327332 152.690887,426.710632 
	C153.618088,416.941467 155.973282,407.436432 158.119827,397.895782 
	C158.738617,395.145416 159.471664,392.416992 160.258057,389.709198 
	C161.033829,387.037933 162.576080,385.090515 165.673508,385.982422 
	C168.565903,386.815277 168.732574,389.356873 168.219650,391.715027 
	C166.386337,400.143555 164.381607,408.534821 162.407211,417.368225 
z"/>
<path fill="#000000" opacity="1.000000" stroke="none" 
	d="
M434.876648,281.217468 
	C446.067902,249.124100 467.484985,228.524612 500.612183,221.557617 
	C528.395874,215.714417 553.417664,222.456375 575.003418,241.023407 
	C595.012634,258.234375 604.798462,280.561371 604.877441,306.568054 
	C604.951355,330.888947 596.003479,352.159088 578.096985,368.994415 
	C541.010864,403.861969 485.015076,401.265411 451.947601,362.563507 
	C431.834412,339.023224 426.739655,311.515411 434.876648,281.217468 
M459.642822,358.852478 
	C477.793427,378.257294 500.235931,387.337250 526.563599,384.419312 
	C575.797546,378.962585 606.058350,330.482513 593.877686,285.557617 
	C579.904419,234.021057 515.590332,210.788834 472.438660,242.504959 
	C434.421509,270.447296 428.539948,321.789276 459.642822,358.852478 
z"/>
<path fill="#000000" opacity="1.000000" stroke="none" 
	d="
M396.970917,577.531738 
	C402.326477,579.262756 404.414642,582.744934 404.365570,587.881714 
	C404.271637,597.712708 404.411499,607.545898 404.328857,617.377075 
	C404.269043,624.492188 400.648041,628.097656 393.511871,628.254395 
	C388.848175,628.356934 384.177612,628.371094 379.515015,628.244568 
	C373.180054,628.072632 369.097687,624.342529 368.947906,617.969971 
	C368.709076,607.811401 368.714813,597.636353 369.010071,587.479736 
	C369.191101,581.252625 372.852325,577.616760 379.102203,577.215698 
	C384.905182,576.843201 390.752106,576.704224 396.970917,577.531738 
M393.860474,619.568848 
	C396.371063,618.668518 396.006653,616.488464 396.021942,614.546814 
	C396.065125,609.067261 395.951172,603.585571 396.053772,598.107544 
	C396.323181,583.726318 398.346283,585.452148 382.544159,585.358215 
	C382.212219,585.356262 381.880157,585.375183 381.548126,585.378662 
	C378.665833,585.408813 377.338593,586.899902 377.341003,589.744995 
	C377.348297,598.379883 377.374573,607.015259 377.288147,615.649414 
	C377.257935,618.664124 378.655029,619.833313 381.530243,619.771667 
	C385.347778,619.689819 389.167633,619.715881 393.860474,619.568848 
z"/>
<path fill="#000000" opacity="1.000000" stroke="none" 
	d="
M408.008484,644.299438 
	C412.644501,646.451904 414.418701,649.792175 414.358063,654.461426 
	C414.232788,664.103821 414.366638,673.749390 414.303558,683.393005 
	C414.255524,690.738159 410.604034,694.276245 403.134216,694.342590 
	C398.645111,694.382507 394.154877,694.381165 389.665985,694.328857 
	C383.276062,694.254456 379.261292,691.172180 379.024536,684.938538 
	C378.621063,674.315125 378.624268,663.654480 379.022736,653.030701 
	C379.250732,646.951660 383.137695,643.718079 389.212128,643.730164 
	C395.346619,643.742371 401.505280,643.142944 408.008484,644.299438 
M387.278534,670.496460 
	C387.279266,671.328125 387.280151,672.159851 387.280762,672.991516 
	C387.291107,687.216614 387.285004,687.140564 401.584869,685.994568 
	C404.765076,685.739685 406.011169,684.457458 405.948578,681.354248 
	C405.837891,675.867126 405.977936,670.374817 405.863373,664.887878 
	C405.565430,650.621155 408.970825,651.982361 391.754242,651.946350 
	C388.670593,651.939941 387.206879,653.346375 387.282410,656.526672 
	C387.385101,660.848755 387.289062,665.175476 387.278534,670.496460 
z"/>
<path fill="#000000" opacity="1.000000" stroke="none" 
	d="
M424.339966,577.062073 
	C437.298035,577.000183 437.299408,577.000183 437.298462,589.603394 
	C437.297668,600.230530 437.273895,610.857788 437.302002,621.484802 
	C437.310455,624.691284 436.945496,627.972900 432.954559,627.980774 
	C428.803833,627.988953 428.778137,624.502319 428.775269,621.411560 
	C428.765625,610.950439 428.676147,600.488281 428.809082,590.028931 
	C428.851471,586.694458 427.880402,585.084900 424.289764,585.297424 
	C421.316406,585.473328 417.819946,585.696655 417.765137,581.263611 
	C417.713989,577.125793 421.194672,577.539001 424.339966,577.062073 
z"/>
<path fill="#000000" opacity="1.000000" stroke="none" 
	d="
M315.983582,647.158752 
	C317.772583,649.585083 318.267365,651.974609 318.259399,654.545105 
	C318.229462,664.209839 318.349518,673.876343 318.205444,683.539124 
	C318.094330,690.993164 314.452515,694.338501 306.903442,694.350708 
	C302.237640,694.358215 297.570404,694.417358 292.906403,694.323669 
	C286.678009,694.198486 282.873474,690.663757 282.758759,684.396301 
	C282.569672,674.068481 282.584595,663.732178 282.769806,653.404114 
	C282.866608,648.005127 286.141541,644.149780 291.155487,643.849182 
	C297.461853,643.471130 303.811707,643.672913 310.137207,643.838806 
	C312.346802,643.896790 314.216125,645.182129 315.983582,647.158752 
M295.791748,685.993347 
	C298.955353,685.984009 302.119354,685.940613 305.282501,685.975037 
	C308.374176,686.008606 309.832184,684.666687 309.762207,681.447449 
	C309.642822,675.955017 309.846161,670.455383 309.715729,664.963379 
	C309.379456,650.804626 313.070343,651.945374 295.692383,651.977600 
	C295.526031,651.977905 295.359436,652.002686 295.193390,651.998352 
	C292.186157,651.919006 291.107727,653.515869 291.129395,656.365967 
	C291.193939,664.857849 291.190826,673.350769 291.146149,681.842834 
	C291.132416,684.455688 292.086029,685.997070 295.791748,685.993347 
z"/>
<path fill="#000000" opacity="1.000000" stroke="none" 
	d="
M290.587280,624.457153 
	C288.092346,627.333069 285.174225,628.264709 281.867126,628.262939 
	C277.207367,628.260498 272.544891,628.366150 267.888519,628.241577 
	C261.554108,628.072144 257.820190,624.577759 257.721100,618.365723 
	C257.553894,607.883911 257.584991,597.396423 257.712494,586.913513 
	C257.776947,581.611145 260.810333,578.217041 266.147095,577.477600 
	C272.094238,576.653687 278.099457,576.784363 284.066162,577.421753 
	C289.276917,577.978455 292.580658,581.254150 292.769775,586.192932 
	C293.189423,597.152588 292.946594,608.140625 292.818176,619.115295 
	C292.797394,620.890747 292.093933,622.704407 290.587280,624.457153 
M266.031433,606.486328 
	C266.486115,622.048340 263.085815,619.506653 279.961639,619.785400 
	C283.313812,619.840820 284.816223,618.608704 284.719360,615.134033 
	C284.566833,609.664001 284.768280,604.184875 284.669220,598.712341 
	C284.387939,583.167664 287.457062,585.631409 270.770844,585.315491 
	C267.332916,585.250366 265.963959,586.744934 266.013550,590.064819 
	C266.090332,595.206177 266.030212,600.349548 266.031433,606.486328 
z"/>
<path fill="#000000" opacity="1.000000" stroke="none" 
	d="
M329.985291,596.006653 
	C329.993805,603.998901 330.011780,611.492371 330.001648,618.985901 
	C329.999603,620.482178 329.990723,621.990723 329.808167,623.471802 
	C329.496796,625.998108 328.422791,628.207886 325.518799,628.004944 
	C322.742859,627.810974 321.684326,625.720642 321.683807,623.059570 
	C321.681641,612.402161 321.503937,601.741089 321.738983,591.089050 
	C321.832703,586.843384 320.676971,584.809998 316.148132,585.301636 
	C313.372559,585.603088 310.309692,585.255127 310.206299,581.668518 
	C310.090424,577.650635 313.212860,577.144104 316.489532,577.046021 
	C329.736511,576.649292 329.959717,576.830872 329.963623,590.012756 
	C329.964142,591.844482 329.977478,593.676208 329.985291,596.006653 
z"/>
<path fill="#000000" opacity="1.000000" stroke="none" 
	d="
M696.689941,665.692627 
	C691.872314,670.525146 687.324524,675.131775 682.734924,679.696472 
	C680.494019,681.925232 677.874268,683.936218 675.040588,681.016296 
	C672.303833,678.196228 674.642151,675.840210 676.671631,673.801086 
	C688.264465,662.152710 699.871033,650.518005 711.514221,638.920105 
	C713.543091,636.899170 715.908997,634.631714 718.758423,637.359558 
	C721.896606,640.363831 719.368652,642.765198 717.246277,644.927063 
	C710.504883,651.793884 703.714233,658.612366 696.689941,665.692627 
z"/>
<path fill="#000000" opacity="1.000000" stroke="none" 
	d="
M500.830872,316.018616 
	C500.829529,315.189423 500.828491,314.856537 500.828705,314.523651 
	C500.835724,304.223114 500.834595,304.234039 490.838379,303.218475 
	C489.863739,303.119476 488.785034,302.996429 487.972595,302.516022 
	C481.891388,298.919647 483.625641,292.920166 483.906281,287.666901 
	C484.145630,283.185944 487.566742,280.977295 491.839417,280.923889 
	C504.486816,280.765839 517.137512,280.802704 529.786377,280.862213 
	C534.139587,280.882690 535.284546,283.678558 535.271545,287.551392 
	C535.216309,304.029114 535.382690,320.508667 535.181824,336.984070 
	C535.128113,341.386963 536.240234,343.151917 540.995850,343.167725 
	C551.188782,343.201599 556.297974,352.318146 551.616760,361.553101 
	C550.304932,364.140961 548.048218,365.422607 545.113953,365.418854 
	C527.138245,365.395905 509.162476,365.383087 491.186859,365.320007 
	C490.057953,365.316071 488.822601,365.140686 487.821350,364.660339 
	C484.010681,362.832275 482.351929,356.616028 483.831879,349.741486 
	C484.713470,345.646271 487.323700,343.692810 491.559235,343.282806 
	C500.838165,342.384644 500.829163,342.266083 500.835297,332.992950 
	C500.838928,327.500275 500.833221,322.007629 500.830872,316.018616 
M526.715515,326.499969 
	C526.717773,315.666870 526.709167,304.833771 526.730591,294.000732 
	C526.735474,291.527313 526.735229,289.266144 523.231812,289.292633 
	C514.066101,289.361969 504.899506,289.301117 495.733276,289.304626 
	C493.945801,289.305298 492.358337,289.580475 492.311584,291.926178 
	C492.258820,294.571747 494.052460,294.795898 496.007324,294.818329 
	C498.506927,294.846985 501.006775,294.857819 503.506531,294.858826 
	C507.341736,294.860321 509.343781,296.527924 509.323334,300.603302 
	C509.248169,315.602570 509.243561,330.602631 509.321045,345.601868 
	C509.343262,349.907196 507.371063,351.668701 503.188873,351.420044 
	C501.029846,351.291656 498.856171,351.355591 496.690735,351.405121 
	C494.699921,351.450653 492.420288,351.225220 492.337158,354.191620 
	C492.254425,357.143341 494.668945,357.041779 496.557587,357.316620 
	C498.360382,357.578979 500.209930,357.585754 502.039215,357.589600 
	C513.371582,357.613464 524.703918,357.606476 536.036316,357.604828 
	C537.369446,357.604645 538.702637,357.578918 540.035706,357.557587 
	C542.033936,357.525635 543.711060,357.101898 543.829102,354.613464 
	C543.950745,352.049072 542.308472,351.586823 540.275391,351.546844 
	C537.776855,351.497681 535.270752,351.297729 532.781555,351.426941 
	C528.512207,351.648529 526.666870,349.692413 526.718384,345.499115 
	C526.792053,339.500305 526.722656,333.499756 526.715515,326.499969 
z"/>
<path fill="#000000" opacity="1.000000" stroke="none" 
	d="
M530.479797,244.471680 
	C537.002258,251.752090 538.224854,259.254333 534.333862,266.718414 
	C530.759888,273.574280 523.818115,277.121643 515.615845,276.283569 
	C508.333923,275.539490 502.157928,270.070129 500.174713,262.609131 
	C498.198029,255.172516 501.448853,246.828064 507.977539,242.580093 
	C514.760986,238.166397 523.058777,238.776901 530.479797,244.471680 
M525.825500,251.798798 
	C520.361572,246.806320 513.741211,246.944916 509.887146,252.132462 
	C506.524017,256.659210 507.835388,263.413330 512.676758,266.500336 
	C516.310913,268.817535 521.436035,268.408020 524.710754,265.538727 
	C528.360107,262.341217 528.869202,258.092224 525.825500,251.798798 
z"/>
</svg>